<?xml version="1.0" encoding="utf-8"?>
<!-- Generator: Adobe Illustrator 24.0.2, SVG Export Plug-In . SVG Version: 6.00 Build 0)  -->
<svg version="1.1" id="圖層_1" xmlns="http://www.w3.org/2000/svg" xmlns:xlink="http://www.w3.org/1999/xlink" x="0px" y="0px"
	 viewBox="0 0 283.41 61.86" style="enable-background:new 0 0 283.41 61.86;" xml:space="preserve">
<style type="text/css">
	.st0{fill:#5C5A5A;}
	.st1{fill:#C42B05;}
	.st2{fill:#004A98;}
	.st3{opacity:0.5;fill:#005FD5;}
</style>
<g>
	<path class="st0" d="M188.81,48.19v2.36h-7.08v-4.43h4.05v2.07H188.81z M185.13,38.47v-1.8h-3.97v1.8H174v-1.8h-4.06v1.8h-4.82
		v2.36h24.34v-2.36H185.13z M168.9,46.12v2.07h-3.12v2.36h7.09v-4.43H168.9z M179.28,56.59v-2.17h9.53v-2.36h-9.53V44.7h9.53v-2.26
		h-23.03v2.26h9.54v7.36h-9.54v2.36h9.54v2.17h-10.1v2.36h10.1v2.55h3.96v-2.55h10.19v-2.36H179.28z"/>
	<path class="st0" d="M282.76,48.19v2.36h-7.08v-4.43h4.06v2.07H282.76z M279.07,38.47v-1.8h-3.96v1.8h-7.17v-1.8h-4.06v1.8h-4.81
		v2.36h24.35v-2.36H279.07z M262.84,46.12v2.07h-3.11v2.36h7.07v-4.43H262.84z M273.23,56.59v-2.17h9.53v-2.36h-9.53V44.7h9.53
		v-2.26h-23.02v2.26h9.53v7.36h-9.53v2.36h9.53v2.17h-10.1v2.36h10.1v2.55h3.97v-2.55h10.19v-2.36H273.23z"/>
	<path class="st0" d="M209.13,38.47v2.07H196.4v-2.07h4.62v-1.88h3.5v1.88H209.13z M204.23,41.58l-1.98,3.6h3.49l1.98-3.6H204.23z
		 M209.04,48.1v-2.08h-12.55v2.08h4.62v1.89h-4.62v1.98h2.74c-0.38,3.21-3.03,5.95-3.03,5.95v2.36c2.65-0.94,4.06-2.74,4.91-4.43
		v5.66h3.49v-9.53h4.43v-1.98h-4.43V48.1H209.04z M198.57,45.18v-3.6h3.59v3.6H198.57z M207.52,53.78c-0.9,0-1.64,0.74-1.64,1.64
		c0,0.9,0.74,1.64,1.64,1.64c0.91,0,1.65-0.74,1.65-1.64C209.17,54.51,208.44,53.78,207.52,53.78z M210.83,53.38
		c0,3.12-1.5,4.95-3.31,5.95v2.07c3.05-0.17,6.7-2.76,6.7-7.45v-8.02h2.17V61.4h3.21V45.93h1.42v-2.07h-6.8v-3.12
		c0-0.94,0.95-0.94,0.95-0.94h4.91v-2.08h-6.42c-1.6,0-2.83,1.32-2.83,2.83V53.38z"/>
	<path class="st0" d="M251.82,41.3v2.83h-2.84v-1.99h-1.13v1.99h-2.83v-1.99h-1.32v1.99h-2.74V41.3c0-0.47,0.28-0.85,0.85-0.85h9.15
		C251.35,40.46,251.82,40.83,251.82,41.3z M251.72,39.32v-2.08h-10.85v2.08H251.72z M238.61,40.46h-9.16
		c-0.37,0-0.84,0.37-0.84,0.85v2.83h2.83v-1.99h1.32v1.99h2.83v-1.99h1.13v1.99h2.74V41.3C239.45,40.83,239.17,40.46,238.61,40.46z
		 M228.51,37.25v2.08h10.94v-2.08H228.51z M233.32,60.74c0,0.28,0.19,0.56,0.37,0.75c0.2,0.09,0.38,0.19,0.57,0.19 M235.12,51.4
		h-2.74l-0.09,1.51h2.83V51.4z M235.12,48h-2.65v1.6h2.65V48z M241.62,51.4h-3.01v1.51h3.01V51.4z M241.62,48h-3.01v1.6h3.01V48z
		 M245.11,51.4v1.51h2.93V51.4H245.11z M234.36,61.69c-0.57,0-1.04-0.48-1.04-1.03V54.7h-1.03c-0.1,5.95-4.25,6.51-4.25,6.51v-2.45
		c0.85-1.61,0.76-4.53,0.76-4.53l0.29-7.46c0-0.47,0.37-0.85,0.84-0.85h8.5V44.8h3.49v1.13h9.91V48h-6.71v1.6h5.48
		c0.47,0,0.85,0.38,0.85,0.85v4.25h-4.71v1.23h3.39V58h-3.39v1.61h5.1v2.07h-7.55c-0.56,0-1.04-0.48-1.04-1.03V54.7h-6.42v1.23h3.49
		V58h-3.49v1.61h4.44v2.07H234.36z"/>
</g>
<g>
	<polygon class="st1" points="127.39,61.86 127.39,26.78 115.64,26.78 115.64,61.86 127.39,61.86 127.39,61.86 127.39,61.86 	"/>
	<g>
		<path class="st2" d="M115.64,26.78H94.04c-6.11,0-11.2,4.85-11.2,11.11c0,6.18,5.02,11.12,11.2,11.12h5.95
			c1.02,0,1.8,0.78,1.8,1.72c0,0.94-0.78,1.73-1.8,1.73l-21.37,0.07V26.78H66.95v25.68L57.4,26.78h-1.88h-9.86h-1.88l-6.1,16.36
			l-4.08-16.28v-0.08l0,0l0,0H21.84v0.08l-4.07,16.28l-6.03-16.36H0l13.08,35.08h11.75l2.9-11.67l2.97,11.67h11.67l8.22-21.84
			l8.14,21.84h43.14c6.18,0,11.2-4.94,11.2-11.12c0-6.03-5.01-11.04-11.2-11.04h-6.03c-0.94,0-1.72-0.79-1.72-1.81
			c0-0.94,0.78-1.72,1.72-1.72h19.81V26.78L115.64,26.78z M135.85,26.78v14.79l-8.46-14.79v20.36l8.46,14.72h11.74V26.78H135.85z"/>
		<path class="st1" d="M131.93,10.46c0,5.77-4.68,10.45-10.45,10.45c-5.77,0-10.45-4.68-10.45-10.45c0-5.78,4.68-10.46,10.45-10.46
			C127.25,0,131.93,4.68,131.93,10.46z M129.34,10.46c0-4.34-3.52-7.87-7.86-7.87c-4.33,0-7.84,3.5-7.86,7.83l5.03-5.03
			c0.59-0.58,1.54-0.58,2.12,0c0.59,0.58,0.59,1.53,0,2.12l-6.37,6.37c0.17,0.35,0.35,0.68,0.56,0.99l8.75-8.74
			c0.59-0.59,1.53-0.59,2.12,0c0.58,0.58,0.58,1.53,0,2.11l-8.75,8.75c0.31,0.21,0.65,0.4,1,0.56l6.36-6.36
			c0.59-0.59,1.56-0.59,2.15,0c0.6,0.59,0.59,1.56,0,2.15l-4.98,4.98C125.87,18.25,129.34,14.76,129.34,10.46z"/>
		<path class="st3" d="M115.64,26.78H94.04c-6.11,0-11.2,4.85-11.2,11.11c0,6.18,5.02,11.12,11.2,11.12h5.95
			c1.02,0,1.8,0.78,1.8,1.72c0,0.94-0.78,1.73-1.8,1.73l-21.37,0.07V26.78H66.95v25.68L57.4,26.78h-1.88h-9.86h-1.88l-6.1,16.36
			l-4.08-16.28v-0.08l0,0l0,0H21.84v0.08l-4.07,16.28l-6.03-16.36H0l13.08,35.08h11.75l2.9-11.67l2.97,11.67h11.67l8.22-21.84
			l8.14,21.84h43.14c6.18,0,11.2-4.94,11.2-11.12c0-6.03-5.01-11.04-11.2-11.04h-6.03c-0.94,0-1.72-0.79-1.72-1.81
			c0-0.94,0.78-1.72,1.72-1.72h19.81V26.78L115.64,26.78z M135.85,26.78v14.79l-8.46-14.79v20.36l8.46,14.72h11.74V26.78H135.85z"/>
	</g>
</g>
</svg>
