<svg width="200" height="50" xmlns="http://www.w3.org/2000/svg">
 <g>
  <title>background</title>
  <rect x="-1" y="-1" width="202" height="52" id="canvas_background" fill="none"/>
 </g>

 <g class="layer">
  <title>Layer 1</title>
  <text style="cursor: move;" stroke="null" font-weight="bold" xml:space="preserve" text-anchor="start" font-family="Helvetica, Arial, sans-serif" font-size="34" id="svg_1" y="49.586577" x="0.312225" stroke-opacity="null" stroke-width="0" fill="#ffffff">wals n  SCM</text>
  <path stroke="null" class="st1" d="m82.734353,26.331419c0,1.893421 -1.707623,3.42916 -3.812963,3.42916c-2.105339,0 -3.812963,-1.535739 -3.812963,-3.42916c0,-1.896703 1.707623,-3.432441 3.812963,-3.432441c2.105339,0 3.812963,1.535739 3.812963,3.432441zm-0.945031,0c0,-1.424168 -1.284366,-2.582535 -2.867932,-2.582535c-1.579917,0 -2.860634,1.148522 -2.867932,2.569409l1.83533,-1.650591c0.215277,-0.190327 0.56191,-0.190327 0.773539,0c0.215277,0.190327 0.215277,0.502068 0,0.695676l-2.324265,2.090311c0.062029,0.114852 0.127707,0.223141 0.204331,0.324868l3.192672,-2.868025c0.215277,-0.193608 0.558262,-0.193608 0.773539,0c0.211629,0.190327 0.211629,0.502068 0,0.692395l-3.192672,2.871306c0.113112,0.068911 0.23717,0.13126 0.364877,0.183764l2.320616,-2.087029c0.215277,-0.193608 0.569208,-0.193608 0.784485,0c0.218926,0.193608 0.215277,0.511913 0,0.705521l-1.817086,1.634183c1.554375,-0.02297 2.820498,-1.168211 2.820498,-2.579253z" id="svg_10" fill="#c42b05"/>
  <polygon stroke="null" class="st1" id="svg_7" points="81.36683654785156,49.59421157836914 81.36683654785156,31.763346103934055 76.36011505126953,31.763346103934055 76.36011505126953,49.59421157836914 81.36683654785156,49.59421157836914 81.36683654785156,49.59421157836914 81.36683654785156,49.59421157836914 " fill="#c42b05"/>
  <path stroke="null" class="st1" d="m122.455922,26.220798c0,1.89343 -1.70763,3.42916 -3.81297,3.42916c-2.10533,0 -3.81296,-1.53573 -3.81296,-3.42916c0,-1.8967 1.70763,-3.43244 3.81296,-3.43244c2.10534,0 3.81297,1.53574 3.81297,3.43244zm-0.94503,0c0,-1.42416 -1.28437,-2.58253 -2.86794,-2.58253c-1.57991,0 -2.86063,1.14852 -2.86793,2.56941l1.83533,-1.65059c0.21528,-0.19033 0.56191,-0.19033 0.77354,0c0.21528,0.19032 0.21528,0.50207 0,0.69567l-2.32426,2.09031c0.06203,0.11486 0.1277,0.22315 0.20433,0.32487l3.19267,-2.86802c0.21528,-0.19361 0.55826,-0.19361 0.77354,0c0.21163,0.19032 0.21163,0.50207 0,0.69239l-3.19267,2.87131c0.11311,0.06891 0.23717,0.13126 0.36487,0.18376l2.32062,-2.08703c0.21528,-0.19361 0.56921,-0.19361 0.78448,0c0.21893,0.19361 0.21528,0.51192 0,0.70552l-1.81708,1.63419c1.55437,-0.02297 2.8205,-1.16821 2.8205,-2.57926z" id="svg_2" fill="#c42b05"/>
  <polygon stroke="null" class="st1" id="svg_3" points="120.68135124393757,49.5691432721278 120.68135124393757,32.00965118408203 116.21737670898438,32.00965118408203 116.21737670898438,49.5691432721278 120.68135124393757,49.5691432721278 120.68135124393757,49.5691432721278 120.68135124393757,49.5691432721278 " fill="#c42b05"/>
 </g>
</svg>